<svg id="Layer_3" data-name="Layer 3" xmlns="http://www.w3.org/2000/svg" width="400" height="400.53" viewBox="0 0 400 400.53"><defs><style>.cls-1,.cls-4,.cls-5{fill:none;stroke-miterlimit:10;}.cls-1,.cls-4{stroke:#fff;}.cls-1{stroke-width:24px;}.cls-2{fill:#fff;}.cls-3{fill:#8c6a4f;}.cls-4{stroke-width:6px;}.cls-5{stroke:#8c6a4f;stroke-linecap:round;stroke-width:22px;}</style></defs><path class="cls-1" d="M243.27,60c-16.68-4.7-15.24-8.19-5.12-15-3.69-2.46-14.76.2-22.19,5.12,1.79-3.07,5.18-12.3,8.66-18.45-5.53-.92-20,9.74-27.67,18.76,2.25-4.41,4.64-16.4,4.64-21-12.87,13-25.82,24.33-52.83,32.57-1.48.41-3,.84-4.42,1.28l-.36.1h0C72.79,85.23,21.4,147.57,21.4,221.08c0,91.69,80,166,178.6,166s178.6-74.34,178.6-166C378.6,143.26,321,78,243.27,60Z"/><ellipse class="cls-2" cx="200" cy="221.08" rx="167.6" ry="155.03"/><path class="cls-3" d="M200,77.05c42.13,0,81.66,15.18,111.31,42.74,29.21,27.15,45.29,63.12,45.29,101.29s-16.08,74.13-45.29,101.28c-29.65,27.57-69.18,42.75-111.31,42.75s-81.66-15.18-111.31-42.75C59.48,295.21,43.4,259.24,43.4,221.08s16.08-74.14,45.29-101.29C118.34,92.23,157.87,77.05,200,77.05m0-22c-98.64,0-178.6,74.33-178.6,166s80,166,178.6,166,178.6-74.34,178.6-166-80-166-178.6-166Z"/><path class="cls-3" d="M116.48,195.12c-30.08,5.37-63.24,20.41-94.19,42.63a157.63,157.63,0,0,0,27.17,72.7c24.19-20.79,54.93-38,80-42.51a37,37,0,0,0-13-72.82Z"/><circle class="cls-4" cx="121.85" cy="230.41" r="16"/><path class="cls-3" d="M283.52,195.12c30.08,5.37,63.24,20.41,94.19,42.63a157.63,157.63,0,0,1-27.17,72.7c-24.19-20.79-54.93-38-80-42.51a37,37,0,0,1,13-72.82Z"/><path class="cls-3" d="M295.3,295.26a153.48,153.48,0,0,1-45.18,21.95,175.21,175.21,0,0,1-100.23,0,153.54,153.54,0,0,1-45.19-21.95,2,2,0,0,1,2-3.46h0a237.12,237.12,0,0,0,45.8,15.47,217.06,217.06,0,0,0,95,0,237.12,237.12,0,0,0,45.8-15.47h0a2,2,0,0,1,2,3.47Z"/><circle class="cls-4" cx="278.15" cy="230.41" r="16"/><path class="cls-5" d="M184,280.73a47.2,47.2,0,0,1,31.92,0"/><path class="cls-3" d="M144,63.38c30.32-8.33,44-20.16,57.61-33.95,0,4.61-2.39,16.6-4.64,21,7.69-9,22.14-19.68,27.67-18.76-3.48,6.15-6.87,15.38-8.66,18.45,7.43-4.92,18.5-7.58,22.19-5.12-10.56,7.07-11.68,10.55,7.38,15.57C270.44,67.15,198.18,83,197.26,83S144,63.38,144,63.38Z"/><path class="cls-3" d="M201.59,127.61c-27.29,38.54-136.75,15.58-155.19,39C67.71,69.4,201.59,64.89,201.59,64.89Z"/><path class="cls-3" d="M201.59,127.61c27.29,38.54,136.75,15.58,155.2,39C335.47,69.4,201.59,64.89,201.59,64.89Z"/></svg>